<svg width="56" height="80" viewBox="0 0 56 80" fill="none" xmlns="http://www.w3.org/2000/svg">
<path d="M28 0C20.5739 0 13.452 2.94999 8.20101 8.20101C2.94999 13.452 0 20.5739 0 28C0 37.52 4.76 45.88 12 50.96V60C12 61.0609 12.4214 62.0783 13.1716 62.8284C13.9217 63.5786 14.9391 64 16 64H40C41.0609 64 42.0783 63.5786 42.8284 62.8284C43.5786 62.0783 44 61.0609 44 60V50.96C51.24 45.88 56 37.52 56 28C56 20.5739 53.05 13.452 47.799 8.20101C42.548 2.94999 35.4261 0 28 0ZM16 76C16 77.0609 16.4214 78.0783 17.1716 78.8284C17.9217 79.5786 18.9391 80 20 80H36C37.0609 80 38.0783 79.5786 38.8284 78.8284C39.5786 78.0783 40 77.0609 40 76V72H16V76Z" fill="#FBC02D"/>
</svg>
