<svg width="144" height="144" viewBox="0 0 144 144" fill="none" xmlns="http://www.w3.org/2000/svg">
<rect width="144" height="144" rx="72" fill="#F9F9F9"/>
<rect x="8" y="8" width="128" height="128" rx="64" fill="#FFF59D" fill-opacity="0.3"/>
<path d="M72 32C64.5739 32 57.452 34.95 52.201 40.201C46.95 45.452 44 52.5739 44 60C44 69.52 48.76 77.88 56 82.96V92C56 93.0609 56.4214 94.0783 57.1716 94.8284C57.9217 95.5786 58.9391 96 60 96H84C85.0609 96 86.0783 95.5786 86.8284 94.8284C87.5786 94.0783 88 93.0609 88 92V82.96C95.24 77.88 100 69.52 100 60C100 52.5739 97.05 45.452 91.799 40.201C86.548 34.95 79.4261 32 72 32ZM60 108C60 109.061 60.4214 110.078 61.1716 110.828C61.9217 111.579 62.9391 112 64 112H80C81.0609 112 82.0783 111.579 82.8284 110.828C83.5786 110.078 84 109.061 84 108V104H60V108Z" fill="#FBC02D"/>
</svg>
